<?xml version="1.0" encoding="UTF-8" standalone="no"?>
<!-- Created with Inkscape (http://www.inkscape.org/) -->

<svg
   xmlns:dc="http://purl.org/dc/elements/1.1/"
   xmlns:cc="http://creativecommons.org/ns#"
   xmlns:rdf="http://www.w3.org/1999/02/22-rdf-syntax-ns#"
   xmlns:svg="http://www.w3.org/2000/svg"
   xmlns="http://www.w3.org/2000/svg"
   xmlns:sodipodi="http://sodipodi.sourceforge.net/DTD/sodipodi-0.dtd"
   xmlns:inkscape="http://www.inkscape.org/namespaces/inkscape"
   id="svg3355"
   version="1.1"
   inkscape:version="0.91 r13725"
   xml:space="preserve"
   width="333.61749"
   height="333.61749"
   viewBox="0 0 333.61749 333.61749"
   sodipodi:docname="facebook_logo.svg"><metadata
     id="metadata3361"><rdf:RDF><cc:Work
         rdf:about=""><dc:format>image/svg+xml</dc:format><dc:type
           rdf:resource="http://purl.org/dc/dcmitype/StillImage" /><dc:title></dc:title></cc:Work></rdf:RDF></metadata><defs
     id="defs3359" /><sodipodi:namedview
     pagecolor="#ffffff"
     bordercolor="#666666"
     borderopacity="1"
     objecttolerance="10"
     gridtolerance="10"
     guidetolerance="10"
     inkscape:pageopacity="0"
     inkscape:pageshadow="2"
     inkscape:window-width="1794"
     inkscape:window-height="1047"
     id="namedview3357"
     showgrid="false"
     inkscape:snap-page="false"
     inkscape:zoom="1.3921875"
     inkscape:cx="267.19736"
     inkscape:cy="127.33064"
     inkscape:window-x="0"
     inkscape:window-y="0"
     inkscape:window-maximized="0"
     inkscape:current-layer="g3365"
     fit-margin-top="0"
     fit-margin-left="0"
     fit-margin-right="0"
     fit-margin-bottom="0" /><g
     id="g3363"
     inkscape:groupmode="layer"
     inkscape:label="ink_ext_XXXXXX"
     transform="matrix(1.25,0,0,-1.25,-85.485021,576.25039)"><g
       id="g3365"
       transform="scale(0.1,0.1)"><path
         d="m 0,4795.63 10240,0 0,4.375 -10240,0 0,-4.375 z"
         style="fill:#ffffff;fill-opacity:1;fill-rule:nonzero;stroke:none"
         id="path3371"
         inkscape:connector-curvature="0" /><path
         d="m 0,4595.63 10240,0 0,4.375 -10240,0 0,-4.375 z"
         style="fill:#ffffff;fill-opacity:1;fill-rule:nonzero;stroke:none"
         id="path3373"
         inkscape:connector-curvature="0" /><path
         d="m 4917.81,0 4.3828,0 0,5000 -4.3828,0 0,-5000 z"
         style="fill:#ffffff;fill-opacity:1;fill-rule:nonzero;stroke:none"
         id="path3375"
         inkscape:connector-curvature="0" /><path
         d="m 200,0 4.375,0 0,5000 -4.375,0 0,-5000 z"
         style="fill:#ffffff;fill-opacity:1;fill-rule:nonzero;stroke:none"
         id="path3377"
         inkscape:connector-curvature="0" /><path
         d="m 5317.81,0 4.3828,0 0,5000 -4.3828,0 0,-5000 z"
         style="fill:#ffffff;fill-opacity:1;fill-rule:nonzero;stroke:none"
         id="path3379"
         inkscape:connector-curvature="0" /><path
         d="m 10035.6,0 4.398,0 0,5000 -4.398,0 0,-5000 z"
         style="fill:#ffffff;fill-opacity:1;fill-rule:nonzero;stroke:none"
         id="path3381"
         inkscape:connector-curvature="0" /><path
         d="m 0,200 10240,0 0,4.37109 -10240,0 L 0,200 Z"
         style="fill:#ffffff;fill-opacity:1;fill-rule:nonzero;stroke:none"
         id="path3383"
         inkscape:connector-curvature="0" /><g
         id="g3391"
         transform="scale(10,10)"><text
           transform="matrix(1,0,0,-1,539.5,465.968)"
           style="font-variant:normal;font-weight:normal;font-size:10px;font-family:Helvetica;-inkscape-font-specification:Helvetica;writing-mode:lr-tb;fill:#ffffff;fill-opacity:1;fill-rule:nonzero;stroke:none"
           id="text3393"><tspan
             x="0 5.8621001 11.43875 16.57254 22.186298 27.862558 33.505127 39.108635 44.108635 46.88707 51.03709 54.825001 58.155003 60.935001 66.535919 72.173607 77.81617 407.88 415.01788 422.79788 429.46786 432.24786 435.02786 437.80786 440.44012 446.05392 451.66724"
             y="0"
             sodipodi:role="line"
             id="tspan3395">Facebook “f” LogoRGB / .eps</tspan></text>
</g><path
         d="m 3205.5202,4610.0031 -2374.34003,0 c -81.37,0 -147.3,-65.93 -147.3,-147.3 l 0,-2374.34 c 0,-81.35 65.93,-147.3 147.3,-147.3 l 1278.26003,0 0,1033.55 -347.81,0 0,402.8 347.81,0 0,297.05 c 0,344.73 210.55,532.44 518.07,532.44 147.3,0 273.91,-10.97 310.8,-15.87 l 0,-360.26 -213.28,-0.1 c -167.25,0 -199.63,-79.47 -199.63,-196.09 l 0,-257.17 398.87,0 -51.94,-402.8 -346.93,0 0,-1033.55 680.12,0 c 81.35,0 147.3,65.95 147.3,147.3 l 0,2374.34 c 0,81.37 -65.95,147.3 -147.3,147.3"
         style="fill:#ffffff;fill-opacity:1;fill-rule:nonzero;stroke:none"
         id="path3397"
         inkscape:connector-curvature="0" /></g></g></svg>